<svg xmlns="http://www.w3.org/2000/svg" viewBox="0 0 418.8 360.06"><defs><style>.cls-1{fill:#2e66e6;}.cls-2{fill:#13182c;}.cls-3{fill:#fcfdfd;}.cls-4{fill:#fbfdfd;}.cls-5{fill:#fafdfc;}.cls-6{fill:#fff;}.cls-7{fill:#fdfefe;}.cls-8{fill:#f9fdfc;}.cls-9{fill:#232940;}.cls-10{fill:#fcfbee;}</style></defs><title>Asset 1</title><g id="Layer_2" data-name="Layer 2"><g id="Layer_1-2" data-name="Layer 1"><path class="cls-1" d="M155.77,56.55c9.69-16.35,21.61-30.66,38-40.66A104.79,104.79,0,0,1,239.58.44c27.81-2.5,52.25,5.64,73.62,22.77a107.54,107.54,0,0,1,34.1,47.13,22.44,22.44,0,0,1,.61,3.27h-15.7a14.37,14.37,0,0,0-3.48.16c-1.48.38-3,1.24-2.72,3s1.75,1.78,3.12,1.79c5.16,0,10.33,0,15.49,0a15.82,15.82,0,0,1,4,.25,3.79,3.79,0,0,1,2.64,3.86c.09,2.37-2,1.71-3.33,1.76-2.66.1-5.33,0-8,0-1.49,0-3.23-.14-3.26,2.07s1.38,2.87,3.27,2.89c3.33,0,6.66,0,10,0,1.69,0,3.45-.15,3.57,2.34.14,2.87-1.84,2.66-3.7,2.66H305.31c-1.34,0-2.67,0-4,.07-1.51.1-2.6.89-2.57,2.47a2.42,2.42,0,0,0,2.68,2.39c3.16.08,6.32.07,9.49.06,13.65,0,27.31.11,41-.15,2.5,0,2.74,1,2.93,2.66.35,3.18,2.2,4.52,5.2,5.59,26.25,9.37,41.19,28.66,47.43,55.21,4,16.87,2.07,33.27-5.13,49a3.83,3.83,0,0,0,.83,4.87c15.75,16.7,18.39,36.67,13.32,58-3.1,13-11.23,23.09-22.13,30.82-1.91,1.36-3.74,2.68-4.64,4.92-1.62-1.13-1.37-2.91-1.52-4.53-1-10.21-7.27-17.21-17.59-18.79a10.33,10.33,0,0,1-8.2-5.47c-3.3-5.6-8.67-7.67-15-6.68-4.12.65-6.09-.82-7.15-4.79-2.47-9.19-8.62-14.87-17.84-17-3.78-.86-5.28-2.75-5.23-6.57s2-5.05,5.42-5.78c8.93-1.9,14.15-8,14.43-17.25.15-4.73,1.71-7.11,6.37-8.52,6.56-2,9-6.67,8.77-14.51C352,194.2,349,190,342.51,188.34c-4-1-5.26-3.13-5.39-7-.35-10.31-4.4-15.57-14.27-18.47-4-1.18-5.85-3.27-5.69-7.47a99.76,99.76,0,0,0-.81-15.43c-2.3-19.44-17.38-33.47-36.93-34-3.66-.1-7.33-.07-11,0a7.57,7.57,0,0,1-7.33-4.13c-7.18-12.22-17.41-20-32-21-4-.28-5.94-2.49-5.87-6.55.05-2.83,0-5.67,0-8.5.19-10,5.88-16.85,16.14-19.48,9.4-2.41,20.17,1.56,24.68,8.94,1.92,3.14.64,5.08-1.68,7.3-5.67,5.4-5.7,12.21-.37,17a10.93,10.93,0,0,0,16-1c4.18-4.93,3.65-12.18-1.78-15.86a23.81,23.81,0,0,1-7.76-8.74c-5.08-9.19-16.66-14.43-27.34-12.68s-18.36,7.53-21.55,18.27c-1.3,4.39-.55,9-.69,13.43-.19,6.29-1.3,7.5-7.6,8a34.87,34.87,0,0,0-4,.38c-3.13.61-4.65-.71-5.14-3.79-.63-3.95-1.5-7.86-3.6-11.37a27.48,27.48,0,0,0-37.05-9.87C157.72,58.37,157.72,58.37,155.77,56.55Z"/><path class="cls-1" d="M370.48,328.66c-1.58,1.39-3.5.82-5.27.83-11.16.05-22.32.08-33.48,0a13.51,13.51,0,0,0-8.38,2.46c-23.12,16.2-57,14.72-77.61-6.84-2.67-2.79-3.94-1.54-5.81.5-12.85,14-28,24.53-46.32,30C160.4,365.42,130.3,359,103.74,337c-21.72-18-33.36-41.63-37.19-69.35-.22-1.64-.75-3.24-.88-4.88-.68-8.29-.65-8.48-9.1-8.22-22.14.69-38.22-9-48.95-28.1-1-1.71-2.9-3.92,1.31-4.28a2,2,0,0,0,1.58-2.27,2.35,2.35,0,0,0-2.22-2.3c-1-.14-2-.08-3-.19a2.6,2.6,0,0,1-2.55-3.05c.09-1.91,1.56-1.88,2.9-1.88,7.17,0,14.33,0,21.49,0,1.48,0,3.05.34,4.38-.59,2.11-1.47,2.67-3-.05-4.45a9.75,9.75,0,0,0-4.85-.87c-7.16,0-14.33-.09-21.49.06-3,.06-4.24-.53-4.67-4-3.76-29.95,15.6-57.2,44.06-62,4.94-.84,5.15-4.35,6-7.81,3.29-1.49,6.51.27,9.78.25,17.93-.1,35.86,0,53.79-.05,2.34,0,4.65-.15,6.7-1.49a3.49,3.49,0,0,1,4.09.92,4.56,4.56,0,0,1,.76,3.34c-1.13,6.61-.6,13.28-.69,19.93,0,3.63-1.33,6.07-5.08,6.87-9.8,2.1-14.8,8.43-15.53,18.18-.32,4.38-2.08,6.86-6.47,8.16-6,1.77-8.59,6.5-8.82,12.55-.25,6.24,2.57,11.12,8.56,13.19,4.66,1.62,6.56,4.5,7,9.11.87,9.9,6.2,15.86,16.11,17.45,2.78.45,4,2,4.16,4.73a93.57,93.57,0,0,1,.07,11c-1.46,22.43,15.38,41.15,40.79,41.16h67.4c1.66,0,3.33.05,5,0,3.94,0,5.32,1.84,4.67,5.67-2.4,14.1,10.13,24.06,21,23.32,4-.27,8-.11,12,0a12.56,12.56,0,0,0,7.58-2,47.94,47.94,0,0,1,11.54.4c3.74,1.82,7.53,2.33,11.38.31a5.52,5.52,0,0,1,2.9-.26c2.52,1.17,5,2.39,7.36-.42a6.68,6.68,0,0,1,5.38.66c2.3,1.27,4.82,1.09,7.29,1.1,11.42,0,22.85,0,34.27,0C365.92,327,368.55,326.49,370.48,328.66Z"/><path class="cls-2" d="M121.83,131.62c0,2.67-1.58,3.28-3.88,3.27q-29.34-.1-58.68-.14c-3.05,0-5.82-1.15-8.69-1.94-19.69-9.6-21.74-34.18-5.8-47a27.69,27.69,0,0,1,17-6.06c1.7-.05,2.89,0,3.87-2.07,6.07-12.87,14.62-16.39,28.75-11.94.55-2.73.91-5.49,1.66-8.13,3.39-12,14.13-21,26.13-22.19,13.62-1.31,25.39,4.9,31.41,16.6.76,1.47,1.42,3,2.13,4.49,2,2.85,3-.3,4.07-.94a28.52,28.52,0,0,1,42,14.43c.28.78.43,1.61.77,2.36,1.17,2.56-.24,7.13,1.84,7.69,3.25.89,7.14-.6,10.76-1,2.15-.24,2.08-1.73,2.08-3.28,0-3.49-.06-7,.06-10.49.46-13.26,8.49-22.35,22.06-25.1,12.84-2.6,26,3.48,31.06,14.53,1.14,2.5,2.33,4.33,5,5.61a12,12,0,0,1,6.37,13.39,12.6,12.6,0,0,1-11.35,10.3,12.9,12.9,0,0,1-12.85-7.65c-2.27-5.27-1.13-11.6,3.77-14.75,4-2.53,2.6-4.5.71-7C257,47.84,246.79,45,237.7,47.94c-8.54,2.72-13.13,9.26-13.23,19,0,3.66-1,7.87.42,10.83,1.57,3.19,6.31,1.37,9.59,2.18,12.34,3,21.73,9.91,27.59,21.18,1.48,2.84,3.07,3.64,6.09,3.61,6-.06,12-.47,17.93.64,17.51,3.28,30.27,17.18,31.65,35,.44,5.63.38,11.32.31,17,0,2.49.78,3.34,3.26,3.83,11.92,2.36,17.07,8.81,17.16,21.32,0,2.58.14,3.94,3.48,4.38,7.42,1,11.65,6.59,11.82,14.37.19,8.6-3.65,14.18-11.52,15.6-3.28.59-3.79,1.9-3.8,4.79,0,12.26-5.63,19.07-17.47,20.95-3,.47-3,2-2.85,4.09s-1,4.3,2.55,4.86c11.81,1.86,19.07,8.75,21.41,20.55.39,2,.94,2.09,2.91,1.73,9.8-1.78,15.21.86,19.78,9.36.76,1.4,1.38,2.17,3.22,2.36,14.76,1.52,22,9.9,21.69,25-2.34,10.36-8.88,16.27-19.21,18.19-14.91,0-29.82,0-44.73,0-2.35,0-5.29.79-5.53-3.1.71-4.14,4.1-3.3,6.7-3.33,13-.15,26-.06,39-.07a19.47,19.47,0,0,0,7.85-1.14,14.73,14.73,0,0,0,9.35-14.58c-.22-6.26-4-11.21-10.17-13.45a18.93,18.93,0,0,0-6.86-1.12c-3.4.06-5.46-1.4-6.85-4.63-3.2-7.46-8.29-9.09-15.71-5.43-5.61,2.77-7.63,1.51-7.58-4.71.08-9.8-5.92-17.34-15.07-18.92-9.67-1.68-18,3.51-21.13,13.25-2.24,6.81-4.13,7.39-9.81,3-9.42-7.31-22.28-4.26-26.05,6.16-1.29,3.58-1.19,6.36,3,8.05a10.88,10.88,0,0,1,6.4,6.64,2.75,2.75,0,0,1-.75,3.2c-1.22,1-2.31.25-3-.71-3.64-5.07-8.17-6.58-13.89-3.69s-8.3,8-7.67,14.94a14.86,14.86,0,0,0,10.21,12.39,21.4,21.4,0,0,0,6.42.77c4.66,0,9.33-.15,14,.09,2.2.12,4.93-.13,5.1,3.31-.1,2.69-1.83,3.17-4.09,3.14-6-.07-12,.14-18-.11a21.13,21.13,0,0,1-20.16-24.91c.78-4.29-.6-4.48-4.07-4.46q-36.43.18-72.88,0c-21.56-.1-37.65-13.35-40.51-33.71-.89-6.37-.39-12.95-.39-19.44,0-2.12-.36-3.14-2.87-3.5-11.49-1.63-17.38-8.38-17.61-20.32-.06-3.31-.63-4.87-4.3-5.57-7.3-1.39-11.19-7.05-11.15-14.94,0-7.73,4.21-13.55,11.4-14.82,3.09-.54,4-1.38,4-4.54.16-12.77,5.19-18.8,17.74-21.28,2.51-.5,2.76-1.55,2.75-3.62,0-8.31-.5-16.64,1.17-24.86.51-8,5.13-14,10.73-19a40.36,40.36,0,0,1,27.87-10.45c.67,0,1.34,0,2,0,11.7,0,11.72,0,15.58-11,1.95-5.56,6.09-8.74,11.52-10.07,4.34-1.06,5-3.3,4.05-7.28-3.65-14.73-19.62-21.51-32.7-13.76-2.45,1.45-4.47,3.47-6.8,5.06-2.92,2-4.91,1.31-6.24-2a31.81,31.81,0,0,1-1-3.87c-3.64-13.21-15.2-20.53-28.62-18.12C109,44.44,100.51,55.93,101.55,69c.18,2.21.39,4.44-1.79,5.83s-3.77,0-5.5-1c-10.78-6.43-18.92-3.65-23,8.07-1.34,3.85-3.52,5-7.49,4.74-12.33-1-22.43,8-22.78,19.86-.38,12.8,8.27,21.72,21.27,21.77,17.64.07,35.28,0,52.91.08C117.75,128.3,121.19,127.4,121.83,131.62Z"/><path class="cls-3" d="M327.23,84.54c1.73,1,5.87-2,6,2.15.14,4.3-4.05,2.43-6.51,2.85a14.43,14.43,0,0,1-2.46,0c-2.14,0-4.33-.67-4.21-3s2.62-1.84,4.33-2C325.19,84.49,326,84.54,327.23,84.54Z"/><path class="cls-4" d="M303.87,78.62c-1.21,0-2,0-2.86,0-1.45-.07-3.19.23-3.34-2-.12-2,1.44-2.44,2.86-2.86a6,6,0,0,1,2.46-.16c2.37.32,6.21-1.31,6.31,2.66C309.4,80.44,305.44,77.74,303.87,78.62Z"/><path class="cls-5" d="M318,79.48c-1.62-.48-3.4-.79-3.39-3,0-2.4,1.66-3,3.68-2.89s3.86.92,3.77,3S319.65,79,318,79.48Z"/><path class="cls-6" d="M121.83,131.62c-1.38-2.35-3.69-1.87-5.81-1.87-18,0-35.95.07-53.93,0-12.47-.07-22-8.85-22.67-20.62-.72-12.36,7.94-23.39,20.4-23.74,6.78-.19,9.62-1.52,12-8.21,3.2-9,14.78-10.81,22.73-4.87,1.37,1,2.45,3.12,4.65,1.83,2-1.21,1.23-3.19,1-5-1.51-13.77,8.18-26.66,21.45-28.53,14.43-2,27.32,7,29.88,20.92.36,1.92,0,4.33,2.49,4.94,2.19.54,3-1.69,4.27-2.91,7.27-7.09,15.85-9.12,25.24-5.57,9,3.42,13.86,10.5,14.92,20.09.3,2.68.18,4.38-3.53,4.93-8.67,1.3-11.81,5-13.39,13.9-.86,4.86-4.35,7.63-9.47,7.72s-10.31-.38-15.44.49c-16.19,2.74-26.23,12.57-31.87,27.51Z"/><path class="cls-6" d="M283.68,325.54c-1.15-2.22-3.23-2-5.22-2-5.66,0-11.33.16-17-.1a16.37,16.37,0,0,1-7.59-30.31c6.33-3.93,12.12-2.63,16.16,3.66.51.79.71,2.22,2,1.71,1.57-.63.7-2.08.29-3a10.81,10.81,0,0,0-7.75-6.48c-2.81-.58-3.34-2-3.08-4.45.72-6.94,4.32-11.81,10.62-14.51,6.93-3,13.37-1.71,19,3.24,5.16,4.53,5.55,4.46,7.23-2.13a19.76,19.76,0,0,1,38.86,6.39c-.15,1.68-.77,3.42,1,4.5s3-.51,4.36-1.41c7.32-5,15.66-2.15,18,6.41.85,3.11,2.29,3.72,5.29,3.55,10.58-.58,18.66,6.54,18.79,16.21s-7.23,16.65-17.78,16.69c-13.65.06-27.3,0-40.95,0-2.1,0-4.44-.54-5.71,2a2.55,2.55,0,0,1-3.43,0,8.83,8.83,0,0,0-7.17.95h-3a10.08,10.08,0,0,0-11.21,0C291.5,326.11,287.47,327.35,283.68,325.54Z"/><path class="cls-7" d="M41.63,217.51H65c1.68,0,3.6-.14,3.47,2.36-.11,2.11-1.68,2.64-3.53,2.64H18.16c-1.61,0-3.17-.41-3.29-2.28-.15-2.23,1.54-2.69,3.34-2.7Z"/><path class="cls-3" d="M30.05,201.57H18.57c-1.74,0-3.61-.15-3.69-2.36-.07-1.89,1.75-2.48,3.18-2.5q12-.19,24,0c1.74,0,3.41,1.13,3.15,3.12s-2.13,1.76-3.63,1.77C37.71,201.58,33.88,201.57,30.05,201.57Z"/><path class="cls-8" d="M60.1,206.46a57.7,57.7,0,0,1,5.89.44c1.28.22,2.52.87,2.56,2.56a2.46,2.46,0,0,1-2.41,2.65c-4.1.26-8.22.35-12.32.2A2.78,2.78,0,0,1,51,209.37a3.13,3.13,0,0,1,3.12-2.69c2-.17,4,0,5.93,0Z"/><path class="cls-7" d="M21.81,232.72c-2.62-.78-6.69,1.28-6.79-2.6s4-2.53,6.27-2.49c2.49.05,6.82-1.69,6.93,2.31C28.35,234.3,23.79,231.59,21.81,232.72Z"/><path class="cls-8" d="M42.26,212.51c-2.59-.08-6.09.48-6.11-3.14,0-2.81,3.07-2.85,5.46-2.81,2.64.05,6.2-.12,6.39,3S44.74,212.5,42.26,212.51Z"/><path class="cls-3" d="M39.63,186.63a30.34,30.34,0,0,1,3.44,0,2.4,2.4,0,0,1,.08,4.79,18.71,18.71,0,0,1-3.43.09c-2.12-.14-4.95,1-5.51-2.44C33.91,187.25,35.58,186.54,39.63,186.63Z"/><path class="cls-9" d="M295.41,326.45c2.84-4.2,8.31-4.19,11.21,0A7.66,7.66,0,0,1,295.41,326.45Z"/><path class="cls-9" d="M309.62,326.46c1.93-3.77,4.31-4.21,7.17-.95C315.12,329.63,313.1,329.89,309.62,326.46Z"/><path class="cls-6" d="M257.52,278.58c-1.59,2.84.42,6.62-2.41,8-4.17,2-7.43,5.57-13,5.49-25.64-.39-51.3-.15-76.95-.18-21.55,0-34.51-13-34.52-34.5q0-55.47,0-110.93c0-21.68,13.13-34.72,34.92-34.72q55.46,0,110.92,0c21.18,0,34.24,13,34.26,34.24.05,33.81,0,67.62.09,101.43,0,3.28-.78,5-4,6.24a21.82,21.82,0,0,0-12,12.07c-1.05,2.45-1.75,2.28-3.87,1.12-10.51-5.77-21.08-4.19-29,4.46-1.87,2.05-3.75,2.26-6.12,2.25q-32.22,0-64.45,0a29.46,29.46,0,0,0-4,.1,2.33,2.33,0,0,0-2.19,2.79,2.23,2.23,0,0,0,2.37,2.1c1.33,0,2.66,0,4,0h65.93Z"/><path class="cls-9" d="M185.78,104.32c8.6-14.8,21.49-18.44,37-18.16,14.35.26,25.26,5.22,33,18.16Z"/><path class="cls-9" d="M123.58,202.31c0,9.82-.19,19.64.08,29.45.12,4.23-1.8,4.41-4.81,3.35-4.78-1.68-8.22-4.89-8.3-10.12q-.3-23.2,0-46.41c.08-4.94,4.35-9.13,9-10.08,2.87-.59,4.19-.05,4.11,3.37C123.44,182,123.58,192.17,123.58,202.31Z"/><path class="cls-9" d="M318.14,201.88c0-9.82.19-19.64-.09-29.45-.12-4.49,2-4.61,5.18-3.61a11.87,11.87,0,0,1,8.12,11.45q.22,21.71,0,43.42a12.12,12.12,0,0,1-8.76,11.52c-3,.86-4.58.34-4.51-3.38C318.27,221.85,318.14,211.86,318.14,201.88Z"/><path class="cls-6" d="M277,71.13a7.43,7.43,0,0,1-7.39,7.74,7.67,7.67,0,0,1-7.93-7.26,8,8,0,0,1,7.44-7.92A7.92,7.92,0,0,1,277,71.13Z"/><path class="cls-6" d="M348.65,202c0,5.6-2.53,8.95-7.15,9.91-2.16.45-3.06.05-3-2.32q.15-7.74,0-15.47c-.05-2.52,1.25-2.66,3.16-2.26C346,192.75,348.66,196.56,348.65,202Z"/><path class="cls-6" d="M103,202c0,2.15-.16,4.31,0,6.43.4,4.53-2.13,4.11-4.86,2.88-4.11-1.87-5.52-5.42-5.4-9.73s1.71-7.64,6-9.29c2.82-1.09,4.45-.77,4.23,2.78C102.85,197.34,103,199.66,103,202Z"/><path class="cls-9" d="M65,109.64c.94-6.42,7.63-11.87,15.22-12,2.36,0,3.79-.46,5.17-2.66,2.92-4.66,7.62-6.13,13.54-4.44,2.31.66,2.94.32,3.65-2a17.26,17.26,0,0,1,16.16-12.57c1.32,0,3.12-.31,3.25,1.37s-1.63,1.17-2.73,1.31c-9.59,1.21-13.2,4.82-14.64,15-.32,2.27-1,2.39-2.85,1.46-8.36-4.25-10.08-3.8-15.54,4.23-1,1.46-2.12,1.21-3.44,1.17C73.74,100.16,71,102,67.59,110.66c-.36.92-.55,2.14-1.89,1.59C64.56,111.78,64.86,110.61,65,109.64Z"/><path class="cls-1" d="M215.49,224.6l4.23-4.15c5.77,1.88,8.61,7.41,13.29,10.68,2.27,1.59,3.93,4,6.07,5.86,1.15,1,2.15,2.73,4.2,1.83l4.4-4.33c4.42-3.3,8.12-7.4,12-11.3,2.65-2.68,5-2.77,7.66-.08,6,6,12,12,18.34,17.67,3.65,3.27,3.52,4.79.37,8.38-1,1.13-2.11,2.12-3.17,3.18-2.16,2.16-4.27,2.17-6.56.14-2-1.77-4.2-3.28-6.05-5.22l-5.75-5.53c-2.23-1.41-2.9.87-3.94,1.82-4.92,4.47-10.06,8.72-14.53,13.67-2.69,3-5.09,3-7.91.08-4.14-4.33-8.36-8.58-12.72-12.7s-4.44-4.07-8.79,0c-4.85,4.54-9.21,9.62-14.57,13.62-1,.79-1.94,1.88-3.47,1.66l-3.81-3.35c-4.36-4.11-8.51-8.45-13-12.4l-2.39-2.55c-2.32-1.31-3.31.83-4.52,1.94-3.07,2.79-5.88,5.85-8.87,8.73-2.64,2.53-5.16,2.88-7.52-.35q-.3-.41-.63-.78c-5.38-6.09-6.51-5,0-12.35l4.78-4.33c3.88-3.87,8-7.46,12-11.17,2.79-2.58,5.17-2.55,7.73.06,4.31,4.39,8.84,8.55,13.16,12.91,3.88,3.93,4.16,3.95,7.93.22Q209.44,230.52,215.49,224.6Z"/><path class="cls-9" d="M195.88,201.06c-3-.09-4.39-2.06-6.06-3.65-2.88-2.75-5.75-7.59-8.67-7.62s-5.8,4.81-8.64,7.58c-5.07,5-6.76,5-11.87-.12-1.89-1.88-3.73-3.8-5.66-5.63-3.38-3.2-3.2-6.26.12-9.39,2.53-2.4,4.85-5,7.46-7.36,1.9-1.71,2.14-2.93.08-4.73-2.74-2.42-5.19-5.16-7.82-7.71-3.14-3.06-3-6,.09-9,2.52-2.43,5-4.94,7.42-7.41,2.9-2.93,5.77-2.87,8.65.05,2.57,2.61,5.27,5.1,7.73,7.8,1.7,1.87,3,2.13,4.77.1,2.43-2.72,5.16-5.19,7.72-7.8,2.83-2.9,5.69-3.19,8.65-.25,2.6,2.58,5.2,5.17,7.77,7.77,2.88,2.92,2.79,5.81-.11,8.68-2.72,2.69-5.34,5.5-8.15,8.1-1.58,1.46-1.7,2.48-.05,4,2.58,2.35,5,4.88,7.43,7.39,4.11,4.21,4.08,6.13-.12,10.44-2.21,2.27-4.48,4.46-6.7,6.72A6.28,6.28,0,0,1,195.88,201.06Z"/><path class="cls-9" d="M232.42,173.48a26.8,26.8,0,1,1,26.25,27.08A26.89,26.89,0,0,1,232.42,173.48Z"/><path class="cls-9" d="M256.54,125.12h35a26.44,26.44,0,0,1,4,.26,2.23,2.23,0,0,1,1.93,2,2.2,2.2,0,0,1-1.81,2.6,20.54,20.54,0,0,1-4.44.36q-34.49,0-69,0h-2c-2.05,0-4.43-.09-4.35-2.83.06-2.46,2.37-2.38,4.2-2.39,7.16,0,14.32,0,21.48,0Z"/><path class="cls-9" d="M198.57,259.89c6.4-6,12.91-11.93,19.14-18.12,2.3-2.29,3.85-2.39,6.1-.12,4.67,4.71,9.71,9.07,14.23,13.91,2.92,3.12,4.84,3.71,8,.19,4.68-5.14,10-9.74,15.07-14.48,1-1,2.81-3.78,3.35.46C258,247.92,251.39,254,245,260.35c-2.16,2.14-3.51,2.17-5.65,0C234.1,255,228.51,250,223.24,244.66c-1.85-1.87-3-1.75-4.73,0C213,250.2,207.25,255.56,201.58,261,200,262.52,198.35,263.7,198.57,259.89Z"/><path class="cls-9" d="M270.25,247.26c3.36-.23,4.7,2.72,6.6,4.51,2.13,2,3.38,1.82,5.21-.22,7-7.76,7.71-5.13-.34-12.88-5-4.83-10.17-9.53-15-14.53-2.34-2.41-3.92-2.82-6.3-.1-2.61,3-5.65,5.6-8.51,8.37-1.18,1.14-2.25,2.53-4.22,2.08.93-4.47,5-6.32,7.84-9.15,7.85-7.89,8-7.78,16,0,6,5.75,11.9,11.58,18,17.26,1.86,1.74,2.08,3.07.1,4.8-1.36,1.2-2.41,2.78-3.8,3.93-2.31,1.92-4.15,6.68-6.83,5.35C275.36,254.85,271.54,251.88,270.25,247.26Z"/><path class="cls-9" d="M215.49,224.6c-1.61,5.27-6.51,7.7-10,11.27-7.23,7.38-5.31,6.26-12,0-3.88-3.63-7.82-7.22-11.39-11.14-2.69-3-4.66-3.39-7.45-.12-2.46,2.89-5.5,5.28-8.3,7.88-1.07,1-2,2.34-3.76,2,.66-4.23,4.5-5.93,7.08-8.52,8.35-8.38,8.44-8.28,17.08-.08,3.5,3.33,7.12,6.54,10.45,10,1.89,2,3.06,1.71,4.81-.11,3-3.13,6.19-6.05,9.35-9C212.5,225.67,213.44,224,215.49,224.6Z"/><path class="cls-9" d="M189.61,130.35c-3.82,0-7.63.05-11.44,0-1.81,0-3.42-.77-3.3-2.87.1-1.82,1.7-2.37,3.26-2.38q11.94-.06,23.88,0c1.76,0,3.53.69,3.3,2.82s-2,2.45-3.76,2.45H189.61Z"/><path class="cls-9" d="M159.28,278.57c-4,0-8,0-12,0-1.75,0-3.07-.64-3.05-2.47s1.27-2.57,3-2.57c8.14,0,16.29,0,24.44,0,1.71,0,2.92.86,2.79,2.74-.1,1.63-1.28,2.23-2.77,2.24C167.6,278.58,163.44,278.56,159.28,278.57Z"/><path class="cls-9" d="M157.78,238.78a5.43,5.43,0,0,1-.1,1.9c-.82,1.88-4.42,2.79-3.33,4.85,1.5,2.84,4.24,5.07,6.62,7.39,1.63,1.6,2.69-.12,3.7-1.08,3.73-3.56,7.37-7.23,11.13-10.76,1.21-1.13,2.9-3.27,3.56.51-4.93,4.66-9.91,9.26-14.76,14-1.79,1.75-3.12,1.92-4.81-.1s-3.65-3.84-5.49-5.74C149.23,244.5,150.2,241.43,157.78,238.78Z"/><path class="cls-9" d="M153.88,130.32c-2.16,0-4.32.06-6.48,0-1.62-.06-3-.66-3.11-2.53s1.33-2.57,3-2.59c4.81,0,9.63,0,14.45.06a2.42,2.42,0,0,1,2.68,2.37,2.46,2.46,0,0,1-2.52,2.57c-2.65.17-5.31.05-8,.05Z"/><path class="cls-9" d="M243.28,238.82c-.86,4.12-2.49,1.44-3.68.32-6.14-5.79-12.22-11.65-18.33-17.48a18.38,18.38,0,0,0-1.55-1.21c.88-3.92,2.51-1.49,3.73-.35C230.1,226.3,236.68,232.57,243.28,238.82Z"/><path class="cls-9" d="M181.74,244.14c5.93,2.46,10,6.92,13,12.4A25.92,25.92,0,0,1,181.74,244.14Z"/><path class="cls-1" d="M167.69,172.19c-.74-.87-1.43-1.79-2.23-2.6-2.8-2.85-6.1-5.34-8.37-8.56-4.92-6.95,3.64-8.07,5.82-11.94,1.57-2.79,4.17-3.71,6.91-.71,2.59,2.82,5.61,5.26,8,8.2s4.3,2.6,6.65-.15c2.48-2.9,5.41-5.41,8.07-8.17,2-2.07,3.91-2.36,5.95-.16.11.13.23.24.35.36,11,11.27,10.76,8,.34,18.69-5.27,5.4-5.27,5.29.15,10.85,10.17,10.41,10.48,7.23-.27,18.35-2.37,2.46-4.35,2.62-6.7.17-2.66-2.76-5.58-5.28-8.08-8.17-2.23-2.57-3.89-2.92-6.27-.13-2.58,3-5.62,5.68-8.42,8.52-2,2.06-3.94,2.09-6,0-11.43-11.45-10.76-8.53-.78-18.8C164.55,176.22,166.77,174.86,167.69,172.19Z"/><path class="cls-1" d="M259.18,149.52a24.24,24.24,0,1,1,0,48.48c-13.25.06-24.57-11.32-24.42-24.53A24.47,24.47,0,0,1,259.18,149.52Z"/><path class="cls-9" d="M177.14,167.12c.41.22.81.3,1,.55,2.65,3.78,5.22,3.62,7.83-.06.46-.64,1.27-1.29,2.11-.6a1.31,1.31,0,0,1-.23,2.14c-5.59,4.06-1.65,6.66,1.33,9.51,2.64,2.52,5.19,5.15,7.74,7.76.66.67,1.68,1.45.64,2.48s-1.83,0-2.5-.61c-3.54-3.5-7.18-6.93-10.52-10.61-2-2.17-3.22-1.93-5.09.08-3.05,3.28-6.32,6.36-9.63,9.38-.92.84-1.94,3.2-3.4,1.51-1.29-1.49,1-2.44,1.94-3.4,2.72-2.91,5.47-5.82,8.46-8.44,2.6-2.29,3.57-4.22.22-6.58-.77-.55-1.6-1.36-1-2.5C176.17,167.4,176.79,167.29,177.14,167.12Z"/><path class="cls-9" d="M166,159.13c-.07-1.3.66-1.83,1.17-1.63,2.7,1.06,4.44,3.24,5.88,5.64.08.13-.94,1.28-1.18,1.19C169.08,163.32,167.77,160.73,166,159.13Z"/><path class="cls-9" d="M192.4,164.26c-.87-.12-1.34-.57-1.38-1.28-.07-1,5-5.62,5.95-5.48s1.18.72.84,1.37A13.88,13.88,0,0,1,192.4,164.26Z"/><path class="cls-10" d="M267.83,178.54l-.42,1.26c-3.3,3.67-7.28,5.1-12,3.25s-6.26-5-6.11-10.61a7.91,7.91,0,0,1,3-6c4.83-3.48,8.91-3.73,12.76-.79C269.17,168.73,270.1,173.14,267.83,178.54Z"/><path class="cls-9" d="M267.83,178.54a24.24,24.24,0,0,1,0-2.95c.8-7.71-4.92-12.43-12.14-10-1.08.36-2,1.18-3.3.81a2,2,0,0,1,.8-2.57c3.06-2.17,9.27-1.94,12.66.52,4,2.89,5.89,8.15,4.52,12.24A2.39,2.39,0,0,1,267.83,178.54Z"/><path class="cls-9" d="M249.32,172.44a19.72,19.72,0,0,1,1.14,2.69c1.9,6.9,7.64,9.37,13.82,5.88,1-.57,1.82-1.5,3.13-1.21,0,4.09-3.4,4.51-6.13,5.22-6,1.58-13.21-3.84-13.62-10C247.57,173.71,247.88,172.73,249.32,172.44Z"/></g></g></svg>